<svg t="1662664916656" class="icon" viewBox="0 0 1024 1024" version="1.1" xmlns="http://www.w3.org/2000/svg" p-id="13189" width="16" height="16"><path d="M716.8 897.024c-73.728 0-133.12-59.392-133.12-133.12v-2.048c0-20.48 6.144-45.056 16.384-71.68 0 0 0-2.048 2.048-2.048 12.288-30.72 30.72-61.44 55.296-94.208 16.384-22.528 34.816-45.056 51.2-65.536 2.048-4.096 6.144-6.144 8.192-10.24 2.048 2.048 6.144 6.144 8.192 10.24 6.144 8.192 14.336 16.384 20.48 26.624 8.192 10.24 16.384 22.528 24.576 32.768 2.048 2.048 4.096 4.096 6.144 8.192 24.576 32.768 43.008 67.584 55.296 96.256 12.288 26.624 18.432 51.2 18.432 73.728 0 71.68-59.392 131.072-133.12 131.072z m-546.816-366.592l81.92-88.064h581.632l16.384 16.384-73.728 69.632c-6.144-8.192-12.288-16.384-20.48-24.576-6.144-8.192-12.288-14.336-18.432-20.48-4.096-4.096-6.144-6.144-6.144-8.192l-14.336-16.384-14.336 16.384c-2.048 2.048-4.096 4.096-6.144 8.192-6.144 6.144-12.288 12.288-18.432 20.48-18.432 22.528-36.864 45.056-53.248 69.632-24.576 36.864-45.056 71.68-59.392 104.448-10.24 24.576-16.384 47.104-18.432 67.584l-83.968 77.824-292.864-292.864z m364.544-389.12l260.096 260.096h-501.76l241.664-260.096z m276.48 430.08c-2.048-4.096-6.144-8.192-8.192-12.288l106.496-100.352-376.832-376.832-419.84 448.512 348.16 348.16 86.016-79.872c16.384 79.872 86.016 141.312 169.984 141.312 96.256 0 174.08-77.824 174.08-174.08 0-26.624-8.192-57.344-20.48-88.064-14.336-34.816-34.816-71.68-59.392-106.496z" p-id="13190"></path></svg>