<svg t="1661077938587" class="icon" viewBox="0 0 1024 1024" version="1.1" xmlns="http://www.w3.org/2000/svg" p-id="1011" width="32" height="32"><path d="M442 458H128a16 16 0 0 1-16-16V128a16 16 0 0 1 16-16h314a16 16 0 0 1 16 16v314a16 16 0 0 1-16 16z m-274-56h234V168H168zM442 912H128a16 16 0 0 1-16-16V582a16 16 0 0 1 16-16h314a16 16 0 0 1 16 16v314a16 16 0 0 1-16 16z m-274-56h234V622H168zM896 912H582a16 16 0 0 1-16-16V582a16 16 0 0 1 16-16h314a16 16 0 0 1 16 16v314a16 16 0 0 1-16 16z m-274-56h234V622H622zM727.69 493.28l-197-197a16 16 0 0 1 0-22.62l197-197a16 16 0 0 1 22.62 0l197 197a16 16 0 0 1 0 22.62l-197 197a16 16 0 0 1-22.62 0zM598.6 285L739 425.4 879.4 285 739 144.6z" p-id="1012" fill="#2c2c2c"></path></svg>