<svg t="1662665137250" class="icon" viewBox="0 0 1024 1024" version="1.1" xmlns="http://www.w3.org/2000/svg" p-id="16716" width="16" height="16"><path d="M528.384 803.968l224 149.632c6.336 4.288 13.504 6.4 20.48 6.4 11.648 0 23.04-5.504 30.144-15.872 11.392-16.576 7.04-39.168-9.536-50.56l-199.296-127.424 266.88 0c20.096 0 35.008-16.256 35.008-36.352l0-538.88 26.24 0c20.096 0 36.352-9.856 36.352-30.016 0-20.032-16.256-29.952-36.352-29.952L576 130.944 576 103.936C575.872 82.752 573.824 73.92 555.584 67.584c-16.704-3.84-65.664 0-76.672 0-20.032 0-26.816 16.256-26.816 36.352l0 26.944L100.352 130.88C80.384 130.88 64 140.8 64 160.896c0 20.096 16.384 30.016 36.352 30.016l29.44 0 0 538.88c0 20.096 16.256 36.352 36.352 36.352l289.408 0-202.432 127.424c-16.512 11.392-20.8 33.984-9.472 50.56C250.752 954.496 262.144 960 273.728 960c7.04 0 14.208-2.048 20.416-6.4L528.384 803.968zM834.432 704 192 704 192 190.848l642.432 0L834.432 704zM704 555.264C704 566.72 713.344 576 724.736 576l22.528 0C758.72 576 768 566.72 768 555.264L768 347.776c0-11.52-9.28-20.8-20.736-20.8l-22.528 0C713.344 326.976 704 336.256 704 347.776L704 555.264zM576 471.104l0 84.096C576 566.72 585.344 576 596.864 576l22.336 0C630.656 576 640 566.72 640 555.264L640 471.104c0-11.52-9.344-20.8-20.8-20.8L596.864 450.304C585.344 450.304 576 459.648 576 471.104zM374.848 576C311.552 576 256 519.36 256 454.912 256 391.68 304.448 338.24 365.312 338.24c5.056 0 8.96 4.096 8.96 9.216 0 0 0 88.896 0 97.856C374.272 454.272 384 454.976 384 454.976l100.544 0c5.12 0 9.28 3.904 9.28 9.024C493.824 524.864 439.296 576 374.848 576zM519.296 421.952 418.368 421.952c-4.672 0-8.448-3.712-8.448-8.448L409.92 312.64c0-4.736 3.84-8.576 8.576-8.576 64.448 0 109.44 44.928 109.44 109.376C527.936 418.176 524.032 421.952 519.296 421.952z" p-id="16717"></path></svg>