<svg t="1661521431920" class="icon" viewBox="0 0 1024 1024" version="1.1" xmlns="http://www.w3.org/2000/svg" p-id="2859" width="200" height="200"><path d="M377.282 203.641c-2.691-7.177-9.868-12.109-17.94-12.109h-38.573c-7.625 0-14.801 4.484-17.942 12.109L65.112 798.379c-5.382 13.008 4.036 26.912 17.942 26.912H99.2c8.073 0 15.249-4.934 17.94-12.11l58.757-146.217c2.689-7.177 9.866-12.11 17.94-12.11h289.296c7.625 0 14.8 4.484 17.94 12.11l58.756 146.666c2.691 7.175 9.867 12.109 17.94 12.109h19.737c13.454 0 22.874-13.904 17.94-26.91L377.282 203.641z m69.971 399.184H226.58c-13.904 0-23.323-13.904-17.942-26.91l111.683-283.017c6.727-16.596 30.051-16.596 36.328 0L465.64 576.362c4.935 12.559-4.483 26.463-18.387 26.463zM959.464 726.616V517.607c-2.243-93.742-54.72-141.734-157.431-143.976-85.668 0-138.592 32.742-158.777 98.226-3.588 12.558 5.831 25.117 18.838 25.117h14.353c8.522 0 16.147-5.382 18.39-13.904 11.213-40.816 47.095-61.448 106.748-61.448 65.933-2.243 100.468 28.257 102.71 92.396v21.529c0 10.764-8.522 19.287-19.287 19.287h-31.396c-68.623 2.241-117.961 9.418-147.562 20.631-57.412 25.117-87.015 67.727-89.257 126.931 4.486 81.63 53.376 125.136 145.77 130.072h3.588c65.485-4.935 110.337-26.462 135.452-65.037l3.59-6.727 2.241 46.645c0.449 10.316 8.972 18.39 19.287 18.39h14.352c11.662 0 20.185-9.868 19.287-21.529-2.243-25.116-2.691-51.131-0.896-77.594z m-184.791 64.587c-64.139-2.241-97.33-32.292-99.573-89.256-2.241-68.622 63.691-101.365 199.144-99.122h12.11c10.316 0 19.286 8.522 19.286 18.838 1.347 110.784-42.161 167.298-130.967 169.54z" p-id="2860"></path></svg>