<svg t="1659101111390" class="icon" viewBox="0 0 1024 1024" version="1.1" xmlns="http://www.w3.org/2000/svg" p-id="32247" width="32" height="32"><path d="M955.008 926.098 409.289 926.098c-37.672 0-68.215-30.545-68.215-68.215L341.074 448.594c0-37.672 30.542-68.215 68.215-68.215l102.322 0c18.842 0 34.107 15.277 34.107 34.107 0 18.845-15.265 34.107-34.107 34.107L409.289 448.593l0 409.289 545.719 0L955.008 448.594l-170.54 0c-18.845 0-34.105-15.262-34.105-34.107 0-18.83 15.26-34.107 34.105-34.107l170.54 0c37.67 0 68.215 30.542 68.215 68.215l0 409.289C1023.222 895.553 992.677 926.098 955.008 926.098zM613.933 653.238 511.611 653.238c-18.83 0-34.107-15.265-34.107-34.11 0-18.84 15.277-34.105 34.107-34.105l102.322 0L613.933 175.735 68.215 175.735l0 409.289 170.537 0c18.845 0 34.107 15.265 34.107 34.105 0 18.845-15.262 34.11-34.107 34.11L68.215 653.239C30.542 653.238 0 622.694 0 585.024L0 175.735c0-37.672 30.542-68.215 68.215-68.215l545.719 0c37.67 0 68.215 30.542 68.215 68.215l0 409.289C682.148 622.694 651.603 653.238 613.933 653.238z" p-id="32248"></path></svg>