<svg t="1659102423562" class="icon" viewBox="0 0 1024 1024" version="1.1" xmlns="http://www.w3.org/2000/svg" p-id="55755" width="32" height="32"><path d="M939.94 809.06H108.06a30.05 30.05 0 0 1-30-30V245a30.05 30.05 0 0 1 30-30h831.88a30.05 30.05 0 0 1 30 30v534a30.05 30.05 0 0 1-30 30.06zM130.7 756.4h786.6V267.6H130.7z" p-id="55756"></path><path d="M293.88 403h-54.15a26.33 26.33 0 0 1 0-52.66h54.15a26.33 26.33 0 0 1 0 52.66zM402.17 350.3h406.1v52.66h-406.1zM293.88 538.33h-54.15a26.33 26.33 0 0 1 0-52.66h54.15a26.33 26.33 0 0 1 0 52.66zM402.17 485.67h406.1v52.66h-406.1zM293.88 673.7h-54.15a26.33 26.33 0 0 1 0-52.66h54.15a26.33 26.33 0 0 1 0 52.66zM402.17 621.03h406.1v52.66h-406.1z" p-id="55757"></path></svg>