<svg t="1659100823994" class="icon" viewBox="0 0 1026 1024" version="1.1" xmlns="http://www.w3.org/2000/svg" p-id="24622" width="32" height="32"><path d="M118.1696 484.4544h196.9152a118.1696 118.1696 0 0 0 118.1696-118.1696V169.3696A118.1696 118.1696 0 0 0 315.0848 51.2H118.1696A118.1696 118.1696 0 0 0 0 169.3696v196.9152a118.1696 118.1696 0 0 0 118.1696 118.1696z m-39.3728-315.136c0-21.76 17.6128-39.3728 39.3728-39.3728l196.9152 0.0512c21.76 0 39.3728 17.6128 39.3728 39.3728v196.9152a39.3728 39.3728 0 0 1-39.3728 39.3728H118.1696a39.3728 39.3728 0 0 1-39.3728-39.3728V169.3184zM984.6272 720.7424h-433.2544a39.3728 39.3728 0 1 0 0 78.7456h433.2544a39.3728 39.3728 0 1 0 0-78.7456zM984.6272 208.7424h-433.2544a39.3728 39.3728 0 1 0 0 78.7456h433.2544a39.3728 39.3728 0 1 0 0-78.7456zM118.1696 996.4544h196.9152a118.1696 118.1696 0 0 0 118.1696-118.1696v-196.9152A118.1696 118.1696 0 0 0 315.0848 563.2H118.1696A118.1696 118.1696 0 0 0 0 681.3696v196.9152a118.1696 118.1696 0 0 0 118.1696 118.1696z m-39.3728-315.136c0-21.76 17.6128-39.3728 39.3728-39.3728l196.9152 0.0512c21.76 0 39.3728 17.6128 39.3728 39.3728v196.864a39.3728 39.3728 0 0 1-39.3728 39.3728H118.1696a39.3728 39.3728 0 0 1-39.3728-39.3728v-196.9152z" p-id="24623"></path></svg>