<svg t="1662101571555" class="icon" viewBox="0 0 1024 1024" version="1.1" xmlns="http://www.w3.org/2000/svg" p-id="9192" width="16" height="16"><path d="M850 674.33c-44.93 0.94-84.63 32.13-99.63 78.29-1.86 5.85-6.93 9.77-12.61 9.75H274.08c-44.57 0.27-81.04-38.56-81.84-87.1-0.2-23.5 8.22-46.11 23.4-62.81 15.17-16.7 35.84-26.1 57.41-26.12h484.71c35.8 0 69.54-15.33 95.1-43.11 25.37-27.39 39.62-64.7 39.57-103.61 0-39.06-14.07-75.76-39.57-103.61-25.16-27.6-59.4-43.1-95.1-43.05H320.01c-5.68 0.02-10.75-3.9-12.62-9.75-14.95-46.2-54.67-77.41-99.63-78.29C147.96 204.2 98.88 256.3 98 321.45c-0.39 57.33 37.29 106.58 89.12 116.47 51.83 9.89 102.64-22.46 120.15-76.53 1.92-5.86 7.01-9.76 12.72-9.75h436.73c44.47 0 81.4 38.65 81.83 87.1 0.2 23.5-8.22 46.11-23.4 62.81-15.18 16.7-35.84 26.1-57.41 26.11H273.05c-35.8 0-69.54 15.27-95.1 43.05-25.37 27.4-39.63 64.7-39.63 103.61s14.27 76.21 39.63 103.61c25.5 27.78 59.3 43.11 95.1 43.11h464.7c5.71 0 10.78 3.93 12.67 9.81 17.74 53.76 68.41 85.81 120.06 75.95 51.65-9.85 89.3-58.76 89.22-115.89-0.85-65.14-49.9-117.27-109.7-116.58zM205.77 380.95c-28.81-1.41-51.5-27.26-51.5-58.67 0-31.42 22.69-57.27 51.5-58.68 28.81 1.4 51.5 27.26 51.5 58.68 0 31.42-22.69 57.27-51.5 58.67z m646.22 469.41c-28.81-1.41-51.5-27.26-51.5-58.67s22.69-57.27 51.5-58.68c28.81 1.41 51.5 27.26 51.5 58.68s-22.69 57.26-51.5 58.67z m0 0" p-id="9193"></path></svg>