<svg t="1659100555304" class="icon" viewBox="0 0 1024 1024" version="1.1" xmlns="http://www.w3.org/2000/svg" p-id="16063" width="32" height="32"><path d="M365.7 715.5c-1 4.9-4.1 9.1-8.5 11.5l-134.8 70.9c-5.1 2.9-10.6 4.7-16.5 5-5.8 0-10.1-1.9-13.1-6-2.9-4.3-4.5-9.4-4.3-14.6 0-1.7 0.3-4.4 0.8-8.3L225 567.3 74.6 421c-6.8-7.4-10.3-14-10.3-19.8 0-10.2 7.7-16.5 23.2-19.1L294.8 352l93-188c5.2-11.3 12-17 20.2-17 8.3 0 15.1 5.7 20.3 17L496 301c2.6 5.2 2.7 11.3 0.3 16.6l-23.6 52.2c-1.5 3.2-6 3.3-7.5 0.1l-53.8-108.7c-1.4-2.8-5.3-2.8-6.7 0l-71.2 143.9-30.2 4.4-129.4 18.8c-2.8 0.4-4 3.9-1.9 5.9l115.7 112.6-5.2 30.2-22.1 129.1c-0.5 2.7 2.4 4.7 4.7 3.4L372 651.6c2.8-1.5 6.2 0.9 5.6 4.1l-11.9 59.8z" p-id="16064"></path><path d="M578.1 250.9c0.1 0.2 0.2 0.4 0.3 0.7l-0.3-0.7zM827.7 819c-0.3-0.1-0.5-0.3-0.8-0.4l0.8 0.4z m-53.2 34.7c0-1.2 0-1.4 0.4 1.5l-0.4-2.3v0.8zM534.3 470.4l-30.3 4.4-131.8 19.1c-3.4 0.5-4.7 4.6-2.3 7l117.5 114.2-5.2 30.2-22.5 130.5c-0.6 3.6 3.2 6.4 6.4 4.7l144.3-75.9 27.2 14.2L754.1 780c3.6 1.9 7.8-1.2 7.1-5.2L733.7 615l21.9-21.4 95.3-92.9c2.4-2.4 1.1-6.5-2.3-7l-161.9-23.6-13.5-27.1-58.8-118.8c-1.6-3.2-6.2-3.2-7.8 0l-72.3 146.2z m425-3.4c0 6.2-3.7 12.9-11 20.1L796.2 635.6l36 209.6c0.3 1.9 0.4 4.7 0.4 8.4 0.2 5.3-1.4 10.5-4.4 14.9-2.9 4.1-7.8 6.3-12.9 6.1-5.9-0.2-11.7-1.9-16.7-5.1l-188.3-99-188.3 99c-5.1 3.1-10.8 4.8-16.7 5.1-5.8 0-10.2-2.1-13.2-6.1-3.1-4.3-4.5-9.6-4.4-14.9 0-1.7 0.3-4.4 0.8-8.4l36-209.6-152.7-148.5c-7-7.6-10.5-14.2-10.5-20.1 0-10.3 7.8-16.7 23.5-19.3L495.4 417l94.3-190.8c5.3-11.5 12.1-17.2 20.5-17.2s15.3 5.7 20.5 17.2L725.1 417l210.4 30.7c16 2.5 23.8 9 23.8 19.3" p-id="16065"></path></svg>