<svg t="1659100051632" class="icon" viewBox="0 0 1024 1024" version="1.1" xmlns="http://www.w3.org/2000/svg" p-id="7391" width="32" height="32"><path d="M511.975952 128.269385c-211.94104 0-383.713218 171.795715-383.713218 383.735731 0 211.929784 171.772178 383.724475 383.713218 383.724475 211.940017 0 383.760291-171.795715 383.760291-383.724475C895.736243 300.0651 723.916992 128.269385 511.975952 128.269385zM511.975952 847.763137c-185.4282 0-335.746764-150.319587-335.746764-335.7703 0-185.438433 150.319587-335.756997 335.746764-335.756997 185.450712 0 335.792812 150.319587 335.792812 335.756997C847.768765 697.444573 697.426665 847.763137 511.975952 847.763137zM511.975952 344.109222c-92.725868 0-167.884638 75.15877-167.884638 167.884638 0 92.725868 75.15877 167.885662 167.884638 167.885662 92.724845 0 167.884638-75.15877 167.884638-167.885662C679.860591 419.267992 604.70182 344.109222 511.975952 344.109222z" p-id="7392"></path></svg>