<svg t="1659102024512" class="icon" viewBox="0 0 1024 1024" version="1.1" xmlns="http://www.w3.org/2000/svg" p-id="45780" width="32" height="32"><path d="M684 991.3c-17.9 0-34.8-10.8-41.8-28.4-9.2-23.1 2.2-49.3 25.3-58.4C727.2 880.8 781.7 843 825 795.1c16.7-18.4 45.1-19.8 63.6-3.2 18.4 16.7 19.8 45.1 3.2 63.6-52.5 58-118.6 103.9-191.1 132.6-5.6 2.2-11.2 3.2-16.7 3.2zM934.8 755.4c-6.4 0-12.9-1.4-19.1-4.3-22.5-10.6-32.2-37.4-21.6-59.9C920.6 635 934 574.7 934 512c0-50.2-8.7-99.3-25.9-146-16.6-45.1-40.7-86.7-71.6-123.8C774.4 167.6 688 116.3 593.4 97.8 569 93.1 553.1 69.4 557.8 45c4.8-24.4 28.4-40.3 52.8-35.5 114.9 22.4 219.7 84.6 295 175.1 37.5 45 66.7 95.6 86.9 150.3 20.9 56.6 31.5 116.2 31.5 177.1 0 76-16.3 149.2-48.4 217.6-7.7 16.3-23.9 25.8-40.8 25.8zM124.8 818.1c-14.4 0-28.6-6.9-37.3-19.8C30.2 713.6 0 614.6 0 512c0-60.5 10.5-119.7 31.1-176C51 281.6 79.9 231.2 117 186.3 191.3 96.2 295 33.7 408.9 10.4c24.4-5 48.1 10.7 53.1 35.1 5 24.3-10.7 48.1-35.1 53.1-93.8 19.2-179.2 70.7-240.6 145-30.5 37-54.3 78.5-70.8 123.3C98.6 413.3 90 462.1 90 512c0 84.6 24.9 166.1 72 235.9 13.9 20.6 8.5 48.6-12.1 62.5-7.7 5.2-16.4 7.7-25.1 7.7zM512 1024c-102.4 0-201.3-30.1-285.9-87.2-20.6-13.9-26.1-41.9-12.2-62.5 13.9-20.6 41.9-26 62.5-12.2 69.7 47 151.1 71.8 235.6 71.8 24.9 0 45 20.1 45 45s-20.1 45.1-45 45.1z" p-id="45781"></path><path d="M512 838c-50.9 0-99.7-11.4-145-34-22.3-11.1-31.3-38.1-20.3-60.3 11.1-22.3 38.1-31.3 60.3-20.3 32.7 16.3 68 24.5 104.9 24.5 63 0 122.3-24.5 166.9-69.1C723.5 634.3 748 575 748 512c0-101.4-64.5-191.2-160.4-223.6-23.5-8-36.2-33.5-28.2-57 8-23.5 33.5-36.2 57-28.2 64.1 21.6 119.1 62.1 159.1 116.9 40.9 56 62.5 122.4 62.5 192 0 44-8.6 86.7-25.6 126.9-16.4 38.8-39.9 73.7-69.8 103.6S677.8 796 639 812.4c-40.3 17-83 25.6-127 25.6zM260 681.3c-16.6 0-32.5-9.2-40.4-25.1C197.3 611.1 186 562.6 186 512c0-69.6 21.6-135.9 62.5-192 40-54.8 95-95.3 159.1-116.9 23.5-8 49.1 4.7 57 28.2 8 23.5-4.7 49.1-28.2 57C340.5 320.8 276 410.6 276 512c0 36.7 8.2 71.8 24.3 104.4 11 22.3 1.9 49.3-20.4 60.3-6.5 3.1-13.3 4.6-19.9 4.6z" p-id="45782"></path><path d="M512 661c-82.2 0-149-66.8-149-149s66.8-149 149-149 149 66.8 149 149-66.8 149-149 149z m0-208c-32.5 0-59 26.5-59 59s26.5 59 59 59 59-26.5 59-59-26.5-59-59-59z" p-id="45783"></path></svg>