<svg t="1661525180088" class="icon" viewBox="0 0 1024 1024" version="1.1" xmlns="http://www.w3.org/2000/svg" p-id="4680" width="200" height="200"><path d="M298.666667 725.333333h426.666666v-55.168a21.333333 21.333333 0 0 1 36.437334-15.061333l94.805333 94.805333a25.6 25.6 0 0 1 0 36.181334l-94.805333 94.805333a21.333333 21.333333 0 0 1-36.437334-15.061333V810.666667H298.666667v55.168a21.333333 21.333333 0 0 1-36.437334 15.061333l-94.805333-94.805333a25.6 25.6 0 0 1 0-36.181334l94.805333-94.805333a21.333333 21.333333 0 0 1 36.437334 15.061333V725.333333z m256-469.333333v341.333333a42.666667 42.666667 0 0 1-85.333334 0V256H256a42.666667 42.666667 0 1 1 0-85.333333h512a42.666667 42.666667 0 0 1 0 85.333333h-213.333333z" fill="#2c2c2c" p-id="4681"></path></svg>